<?xml version="1.0" encoding="UTF-8"?><svg id="Layer_1" xmlns="http://www.w3.org/2000/svg" viewBox="0 0 33.57 33.57"><defs><style>.cls-1{fill:#e73037;}</style></defs><path class="cls-1" d="M4.49,12.05c-.59,1.51-.88,3.11-.88,4.73,0,7.27,5.92,13.19,13.19,13.19s13.18-5.91,13.18-13.19S24.06,3.6,16.79,3.6c-1.69,0-3.33.32-4.89.94l2.51,4.32c.77-.23,1.57-.35,2.38-.35,2.94,0,5.68,1.58,7.16,4.12,2.29,3.94.94,9.01-3.01,11.3-1.26.73-2.69,1.12-4.14,1.12-2.94,0-5.69-1.58-7.16-4.12l-5.15-8.88ZM16.79,33.57C7.53,33.57,0,26.04,0,16.79c0-4.31,1.64-8.42,4.61-11.55l.05-.06,8.09,13.95c.83,1.43,2.38,2.32,4.04,2.32.82,0,1.62-.22,2.33-.63,2.22-1.29,2.98-4.15,1.69-6.38-.83-1.43-2.38-2.32-4.04-2.32-.82,0-1.62.22-2.33.63-.47.27-.89.63-1.25,1.06l-.05.06L6.95,3.19l.04-.03C9.86,1.09,13.25,0,16.79,0c9.26,0,16.79,7.53,16.79,16.79s-7.53,16.79-16.79,16.79"/></svg>